<svg xmlns="http://www.w3.org/2000/svg" version="1.1" xmlns:xlink="http://www.w3.org/1999/xlink" width="40" height="40"><svg width="40" height="40" viewBox="0 0 40 40" fill="none" xmlns="http://www.w3.org/2000/svg">
<rect width="40" height="40" fill="#911917"></rect>
<g clip-path="url(#clip0_207_7137)">
<path d="M35.8658 10.1836C35.6346 9.82287 35.1977 9.64251 34.5295 9.64251C33.9899 9.64251 33.3988 9.77134 32.782 10.0548C32.1653 10.3382 31.4714 10.7762 30.7519 11.3945C30.0323 12.0129 29.2357 12.8374 28.3619 13.8422C27.5139 14.8213 26.5631 16.058 25.5351 17.5008C25.0469 17.5781 24.6871 17.5781 24.2759 17.5523C24.0446 17.5266 23.8134 17.5266 23.5564 17.5008C23.3508 17.475 23.0938 17.4493 22.8111 17.4493C23.1452 16.9855 23.4536 16.5217 23.762 16.0837C24.1217 15.5684 24.4815 15.0531 24.8413 14.5378C25.2011 14.0225 25.5865 13.5072 25.972 12.9919C26.3575 12.4767 26.7687 11.9356 27.2312 11.3945C27.4882 11.1884 27.7452 10.9565 27.9508 10.7246C28.1564 10.4928 28.3362 10.2866 28.439 10.0805L28.5161 9.92593L27.4368 9.71981L26.2547 11.0853C25.8435 11.2399 25.3295 11.3945 24.7385 11.4976C24.1474 11.6264 23.4793 11.7552 22.8111 11.8583C22.1173 11.9871 21.4234 12.1159 20.7296 12.2448C20.3184 12.3221 19.9072 12.4251 19.5217 12.5282C19.3933 12.3221 19.2134 12.1417 19.0078 11.9614C18.7508 11.7295 18.4167 11.5491 18.0055 11.3945C18.4424 11.2657 18.8536 11.1111 19.2134 10.9308C19.7016 10.6989 20.1385 10.4155 20.5497 10.132C20.9351 9.82287 21.2949 9.48792 21.5776 9.15298C21.8603 8.79227 22.0916 8.43156 22.2715 8.07085C22.6055 7.3752 22.7083 6.78261 22.6312 6.26731C22.5284 5.75201 22.2715 5.31401 21.8346 4.97907C21.4234 4.64412 20.8581 4.38647 20.1642 4.23188C19.4703 4.07729 18.6994 4 17.8514 4C16.5407 4 15.3072 4.18035 14.1765 4.54106C13.0458 4.90177 12.0179 5.33977 11.1184 5.9066C10.219 6.47343 9.42233 7.09179 8.77987 7.78744C8.13742 8.48309 7.62345 9.17874 7.31507 9.84863C7.05809 10.3639 6.9296 10.8535 6.87821 11.3172C6.82681 11.8068 6.9039 12.219 7.10949 12.5797C7.31507 12.9404 7.62345 13.2496 8.08602 13.4557C8.52289 13.6618 9.11395 13.7649 9.8078 13.7649C10.2447 13.7649 10.6558 13.7134 11.0156 13.6103L11.0927 13.5845L11.2212 12.6828L11.0413 12.7085C10.7586 12.7601 10.5017 12.7858 10.2704 12.7858C9.73071 12.7858 9.29384 12.7085 8.95976 12.5282C8.65138 12.3736 8.4201 12.1675 8.29161 11.8841C8.16312 11.6264 8.11172 11.3172 8.16312 10.9565C8.21451 10.5958 8.31731 10.1836 8.52289 9.77134C8.80557 9.20451 9.24244 8.58615 9.8078 7.96779C10.3732 7.34944 11.067 6.78261 11.8637 6.29308C12.6603 5.80354 13.5597 5.3913 14.562 5.05636C15.5642 4.74718 16.6435 4.59259 17.7743 4.59259C18.3653 4.59259 18.9564 4.66989 19.4703 4.79871C19.9843 4.92754 20.4212 5.15942 20.7553 5.44283C21.0636 5.72625 21.2692 6.06119 21.3463 6.4992C21.4234 6.91143 21.3206 7.42673 21.0379 8.01932C20.8838 8.3285 20.6525 8.63768 20.3698 8.94686C20.0871 9.25604 19.753 9.53945 19.3676 9.82287C18.9821 10.0805 18.5452 10.3382 18.1083 10.5443C17.6458 10.7504 17.1575 10.905 16.6692 11.0338C16.4123 11.0081 16.1296 10.9823 15.8469 10.9565C16.181 10.467 16.4894 10.0032 16.772 9.59098C17.1061 9.12721 17.4145 8.68921 17.6972 8.3285C17.9798 7.94203 18.2625 7.60709 18.5195 7.29791C18.7765 6.98873 19.0335 6.70531 19.2905 6.4219L19.4446 6.26731L18.2625 6.00966V6.08696C17.2346 7.22061 15.8212 9.15298 14.048 11.8325C13.4056 12.7858 12.7888 13.6876 12.1463 14.4863C11.5039 15.3108 10.8871 16.0322 10.2704 16.6763C9.65362 17.3205 9.06256 17.8615 8.4715 18.2995C7.90613 18.7375 7.36647 19.0467 6.87821 19.2528C6.69832 19.2271 6.54413 19.2271 6.36424 19.2013C6.03016 19.1755 5.64469 19.1755 5.25921 19.2013C5.07933 19.2013 4.89944 19.2271 4.69385 19.2528H4.64246L4 20.1288L4.17989 20.1804C4.95084 20.4122 5.92737 20.3607 7.0067 19.9742C7.44357 20.0515 7.98323 20.1546 8.59999 20.2319C8.65138 20.2319 8.70278 20.2577 8.75418 20.2577C8.26591 20.7729 7.90614 21.314 7.64915 21.8551C7.36647 22.4477 7.23798 22.9887 7.23798 23.4783C7.26368 23.9678 7.39217 24.4058 7.67485 24.7665C7.95753 25.1272 8.34301 25.4106 8.85697 25.6425C9.34524 25.8486 9.96199 25.9775 10.6558 26.0032C10.7586 26.0032 10.8871 26.0032 10.9899 26.0032C12.0179 26.0032 12.9687 25.8486 13.8681 25.5395C14.8704 25.2045 15.8469 24.6892 16.772 24.0193C17.6972 23.3494 18.6223 22.525 19.5217 21.5459C20.3955 20.5926 21.2949 19.4847 22.2201 18.248C22.8111 18.248 23.3251 18.248 23.762 18.248C24.1474 18.248 24.5843 18.248 25.0469 18.1965C24.8927 18.4026 24.7385 18.6345 24.5843 18.8663C24.3787 19.1755 24.1474 19.5362 23.8904 19.9227C23.5821 20.4122 23.1966 20.9533 22.7854 21.5974C21.886 22.1385 21.115 22.7826 20.4726 23.4525C19.8301 24.1481 19.3162 24.8438 19.0078 25.5137C18.7508 26.029 18.6223 26.5185 18.5709 26.9823C18.5195 27.4718 18.5966 27.8841 18.8022 28.2448C19.0078 28.6055 19.3162 28.9147 19.7787 29.1208C20.2156 29.3269 20.8067 29.43 21.5005 29.43C21.9374 29.43 22.3485 29.3784 22.7083 29.2754L22.7854 29.2496L22.9139 28.3478L22.734 28.3736C22.4513 28.4251 22.1944 28.4509 21.9631 28.4509C21.4234 28.4509 20.9865 28.3736 20.6525 28.1932C20.3441 28.0387 20.1128 27.8325 19.9843 27.5491C19.8558 27.2915 19.8044 26.9823 19.8558 26.6216C19.9072 26.2609 20.01 25.8486 20.2156 25.4364C20.4983 24.8696 20.9351 24.2512 21.5005 23.6329C22.0659 23.0145 22.7597 22.4477 23.5564 21.9581C24.353 21.4686 25.2525 21.0564 26.2547 20.7214C27.2569 20.4122 28.3105 20.2577 29.467 20.2577C30.058 20.2577 30.6491 20.3349 31.1631 20.4638C31.677 20.5926 32.1139 20.8245 32.448 21.1079C32.7563 21.3913 32.9619 21.7262 33.039 22.1643C33.1161 22.5765 33.0133 23.0918 32.7306 23.6844C32.5765 23.9936 32.3709 24.3027 32.0625 24.6119C31.7798 24.9211 31.4457 25.2045 31.0603 25.4879C30.6748 25.7456 30.2379 26.0032 29.7753 26.2093C29.3128 26.4155 28.8245 26.5701 28.3362 26.6989C28.0793 26.6731 27.7966 26.6473 27.5139 26.6216C27.848 26.132 28.1564 25.6683 28.439 25.256C28.7731 24.7923 29.0815 24.3543 29.3642 23.9936C29.6469 23.6071 29.9295 23.2721 30.1865 22.963C30.4435 22.6538 30.7005 22.3704 30.9575 22.087L31.1117 21.9324L29.9295 21.6747L29.8781 21.7262C28.8502 22.8599 27.4368 24.7923 25.6636 27.4718C25.0469 28.4251 24.4044 29.3269 23.762 30.1256C23.1195 30.9501 22.5027 31.6715 21.886 32.3156C21.2692 32.9597 20.6782 33.5008 20.0871 33.9388C19.5217 34.3768 18.9821 34.686 18.4938 34.8921C18.3139 34.8663 18.1597 34.8663 17.9798 34.8406C17.6458 34.8148 17.2603 34.8148 16.8748 34.8406C16.6949 34.8406 16.515 34.8663 16.3095 34.8921H16.2581L15.6156 35.7681L15.7955 35.8196C16.5664 36.0515 17.543 36 18.6223 35.6135C19.0592 35.6908 19.5988 35.7939 20.2156 35.8712C20.8581 35.9485 21.6804 36 22.6312 36C23.6078 36 24.5586 35.8454 25.458 35.5878C26.3575 35.3044 27.1798 34.9436 27.9251 34.4799C28.6703 34.0161 29.3128 33.5008 29.8781 32.934C30.4435 32.3671 30.8547 31.7746 31.1374 31.182C31.3429 30.744 31.4971 30.306 31.5485 29.868C31.5999 29.43 31.5485 29.0177 31.42 28.6312C31.2658 28.2448 31.0089 27.9098 30.6491 27.6264C30.3921 27.3945 30.058 27.2142 29.6469 27.0596C30.0837 26.9308 30.4949 26.7762 30.8547 26.5958C31.3429 26.3639 31.7798 26.0805 32.191 25.7971C32.5765 25.4879 32.9362 25.153 33.2189 24.818C33.5016 24.4573 33.7329 24.0966 33.9128 23.7359C34.2468 23.0403 34.3496 22.4477 34.2725 21.9324C34.1697 21.4171 33.9128 20.9791 33.4759 20.6441C33.0647 20.3092 32.4994 20.0515 31.8055 19.8969C31.1117 19.7424 30.3407 19.6651 29.4927 19.6651C28.1821 19.6651 26.9485 19.8454 25.8178 20.2061C25.4323 20.3349 25.0726 20.4638 24.7385 20.5926C25.2782 19.7681 25.7921 18.9694 26.3061 18.2222C27.077 17.0886 27.848 16.0064 28.5675 15.0531C29.2871 14.0998 30.0066 13.2754 30.6491 12.5797C31.3172 11.8841 31.934 11.343 32.4994 10.9565C33.0647 10.5958 33.553 10.3897 33.9899 10.3897C34.2211 10.3897 34.401 10.467 34.5038 10.6473C34.6066 10.8277 34.5809 11.0853 34.4267 11.4461L34.2982 11.7037C34.2468 11.781 34.1954 11.8841 34.1184 11.9871L33.9642 12.1932L35.3519 12.1417L35.3776 12.0902C35.429 12.0129 35.4547 11.9614 35.5061 11.8841L35.5832 11.7037C36.0457 11.0596 36.0971 10.5443 35.8658 10.1836ZM8.18881 19.4589C8.62568 19.2013 9.08825 18.9179 9.57652 18.5572C10.1676 18.0934 10.81 17.5523 11.4268 16.9082C12.0693 16.2641 12.7117 15.5169 13.3799 14.6667C14.0223 13.8422 14.6905 12.8889 15.3586 11.8325C15.8983 11.8068 16.3866 11.7552 16.7977 11.7037C17.3117 11.8325 17.6972 12.0129 18.0055 12.2705C18.2882 12.5024 18.4938 12.7858 18.5966 13.1208C18.6994 13.4557 18.7251 13.8164 18.6737 14.2029C18.6223 14.5894 18.4938 15.0016 18.2882 15.4138C18.0312 15.9549 17.6715 16.4702 17.2089 16.9855C17.0033 17.2174 16.7977 17.4235 16.5664 17.6296C16.4637 17.5781 16.3609 17.5266 16.2324 17.475C15.8726 17.3462 15.4614 17.2689 14.9732 17.2689C14.2022 17.2689 13.4056 17.3977 12.6603 17.6812C11.9151 17.9646 11.1955 18.3253 10.5274 18.7633C10.1162 19.0467 9.75641 19.3301 9.39664 19.6393C9.37094 19.6393 9.34524 19.6393 9.34524 19.6393C8.93406 19.562 8.54859 19.5105 8.18881 19.4589ZM15.9497 18.0934C15.8212 18.1707 15.7184 18.2738 15.5899 18.351C14.9732 18.7633 14.3307 19.0982 13.6111 19.3301C12.9173 19.5878 12.172 19.6908 11.4268 19.6908C11.1184 19.6908 10.8357 19.6908 10.5531 19.6651C10.7843 19.4589 11.0156 19.2786 11.2469 19.0982C11.7609 18.7375 12.3519 18.4283 12.9687 18.2222C13.5854 18.0161 14.2536 17.8873 14.9218 17.8873C15.2815 17.8873 15.5899 17.9388 15.7955 18.0161C15.8469 18.0419 15.8726 18.0419 15.8983 18.0676C15.924 18.0934 15.9497 18.0934 15.9497 18.0934ZM21.4234 17.4493C21.0636 17.4493 20.6782 17.5008 20.2927 17.5523C19.8815 17.6039 19.496 17.7069 19.1363 17.81L19.0335 17.8357L19.1363 18.7118L19.2905 18.6602C19.5988 18.5572 19.8815 18.4799 20.1385 18.4026C20.3441 18.351 20.5497 18.3253 20.8067 18.2995C20.0614 19.3043 19.3162 20.2577 18.5709 21.0821C17.7743 21.9839 16.9776 22.7568 16.181 23.401C15.3843 24.0451 14.5363 24.5346 13.7139 24.8696C12.8916 25.2045 12.0179 25.3591 11.1441 25.3591C10.5017 25.3591 9.98769 25.256 9.57652 25.0757C9.16535 24.8953 8.88267 24.6634 8.70278 24.3543C8.52289 24.0709 8.4458 23.7101 8.4715 23.2979C8.49719 22.8857 8.62569 22.4219 8.88267 21.9066C9.13965 21.3913 9.47373 20.9018 9.8849 20.4122C9.9106 20.3865 9.9106 20.3865 9.9363 20.3607C10.2704 20.3865 10.6558 20.3865 11.0413 20.3865C12.0179 20.3865 12.9687 20.2319 13.8681 19.9742C14.7676 19.6908 15.5899 19.3301 16.3352 18.8663C17.0804 18.4026 17.7229 17.8873 18.2882 17.3205C18.8536 16.7536 19.2648 16.161 19.5474 15.5684C19.753 15.1304 19.9072 14.6924 19.9586 14.2544C20.01 13.8422 19.9843 13.4557 19.8558 13.095C20.1642 13.0177 20.4726 12.9404 20.8067 12.8631C21.3463 12.7601 21.9117 12.657 22.477 12.5539C23.0424 12.4509 23.6335 12.3478 24.1988 12.2705C24.353 12.2448 24.5072 12.219 24.6614 12.1675L25.5351 12.0129L25.5094 12.0386C25.1754 12.4509 24.8413 12.8631 24.5586 13.2238C24.1731 13.7134 23.8134 14.1771 23.4793 14.6409C23.1452 15.1047 22.7854 15.5684 22.477 16.0322C22.1173 16.496 21.7832 16.9597 21.4234 17.4493ZM30.315 28.7601C30.4178 29.095 30.4435 29.4557 30.3921 29.8422C30.3407 30.2287 30.2122 30.6409 30.0066 31.0531C29.7496 31.5942 29.3899 32.1095 28.9273 32.6248C28.4647 33.1401 27.9251 33.6039 27.3083 34.0161C26.7173 34.4283 26.0491 34.7633 25.3296 34.9952C24.6357 35.2528 23.8904 35.3559 23.1452 35.3559C22.3229 35.3559 21.629 35.3301 21.0636 35.2528C20.6525 35.2013 20.267 35.1498 19.9072 35.0982C20.3441 34.8406 20.8067 34.5572 21.2949 34.1965C21.886 33.7327 22.5284 33.1916 23.1452 32.5475C23.7877 31.9034 24.4301 31.1562 25.0983 30.306C25.7407 29.4815 26.4089 28.5282 27.077 27.4718C27.6167 27.4461 28.105 27.3945 28.5161 27.343C29.0301 27.4718 29.4156 27.6522 29.7239 27.9098C30.0066 28.1675 30.2122 28.4509 30.315 28.7601Z" fill="#BAA37F"></path>
</g>
<defs>
<clipPath id="SvgjsClipPath1001">
<rect width="32" height="32" fill="white" transform="translate(4 4)"></rect>
</clipPath>
</defs>
</svg><style>@media (prefers-color-scheme: light) { :root { filter: none; } }
@media (prefers-color-scheme: dark) { :root { filter: none; } }
</style></svg>