<svg width="168" height="50" viewBox="0 0 168 50" fill="none" xmlns="http://www.w3.org/2000/svg">
<g clip-path="url(#clip0_207_7103)">
<path d="M0 26.9437C0 26.8097 0.0453197 26.4969 0.453197 26.1841C0.861074 25.8713 2.40194 25.4245 2.80982 25.1117C3.2177 24.7989 3.35366 23.95 3.35366 23.0563V5.00447C3.35366 4.06614 3.2177 3.26185 2.80982 2.94907C2.40194 2.63629 0.906393 2.23414 0.453197 1.87668C0 1.5639 0 1.25112 0 1.11707H13.5959C21.1643 1.11707 29.911 0.71493 29.911 6.70242C29.911 9.15997 27.5544 10.8132 24.6992 11.4388C27.9622 12.109 31.044 14.4325 31.044 18.588C31.0893 26.7203 21.7534 26.9437 13.5959 26.9437H0ZM9.19989 3.1278V10.6345H13.5959C20.8924 10.6345 23.5209 10.0536 23.5209 6.70242C23.5209 3.39589 20.8924 3.1278 13.5959 3.1278H9.19989ZM9.19989 12.6452V24.8883H13.5959C21.7534 24.8883 24.6992 24.1287 24.6992 18.588C24.6992 13.807 21.2096 12.6452 13.5959 12.6452H9.19989Z" fill="#911917"/>
<path d="M44.9569 1.11707C44.9569 1.25111 44.9115 1.56389 44.5037 1.87667C44.0505 2.18945 42.5549 2.63628 42.147 2.94906C41.7392 3.26184 41.6032 4.11081 41.6032 5.00446V10.277H57.0572V5.00446C57.0572 4.06613 56.9213 3.26184 56.5134 2.94906C56.1055 2.63628 54.61 2.18945 54.1568 1.87667C53.7036 1.56389 53.7036 1.25111 53.7036 1.11707H66.2571C66.2571 1.25111 66.2118 1.56389 65.8039 1.87667C65.3507 2.18945 63.8552 2.63628 63.4473 2.94906C63.0394 3.26184 62.9035 4.11081 62.9035 5.00446V23.0116C62.9035 23.95 63.0394 24.7542 63.4473 25.067C63.8552 25.3798 65.3507 25.8266 65.8039 26.1394C66.2571 26.4522 66.2571 26.765 66.2571 26.899H53.7036C53.7036 26.765 53.7489 26.4522 54.1568 26.1394C54.5646 25.8266 56.1055 25.3798 56.5134 25.067C56.9213 24.7542 57.0572 23.9053 57.0572 23.0116V12.2878H41.6032V23.0116C41.6032 23.95 41.7392 24.7542 42.147 25.067C42.5549 25.3798 44.0505 25.8266 44.5037 26.1394C44.9569 26.4522 44.9569 26.765 44.9569 26.899H32.4033C32.4033 26.765 32.4486 26.4522 32.8565 26.1394C33.2644 25.8266 34.8053 25.3798 35.2131 25.067C35.621 24.7542 35.757 23.9053 35.757 23.0116V5.00446C35.757 4.06613 35.621 3.26184 35.2131 2.94906C34.8053 2.63628 33.3097 2.23413 32.8565 1.87667C32.4033 1.56389 32.4033 1.25111 32.4033 1.11707H44.9569Z" fill="#911917"/>
<path d="M85.3824 0C94.7182 0 103.193 5.1832 103.193 14.0304C103.193 22.1626 93.8572 28.0608 85.3824 28.0608C76.0465 28.0608 67.5718 22.8776 67.5718 14.0304C67.5718 5.54066 77.2249 0 85.3824 0ZM85.3824 26.0054C93.8572 26.0054 96.7576 21.403 96.7576 14.0304C96.7576 9.24933 92.9508 2.05541 85.3824 2.05541C76.9076 2.05541 74.0072 6.65773 74.0072 14.0304C74.0072 18.8114 77.814 26.0054 85.3824 26.0054Z" fill="#911917"/>
<path d="M104.507 26.9437C104.507 26.8096 104.553 26.4969 104.961 26.1841C105.368 25.8713 106.909 25.4245 107.317 25.1117C107.725 24.7989 107.861 23.9499 107.861 23.0563V5.00446C107.861 4.06612 107.725 3.26183 107.317 2.94905C106.909 2.63628 105.414 2.18945 104.961 1.87667C104.507 1.56389 104.507 1.25111 104.507 1.11706H118.103C125.672 1.11706 134.464 0.714917 134.464 6.74709C134.464 9.20464 132.107 10.8579 129.252 11.4835C132.515 12.1537 135.597 14.4772 135.597 18.6327C135.597 26.765 126.261 26.9884 118.058 26.9884H104.507V26.9437ZM113.707 3.12779V10.6345H118.103C125.4 10.6345 128.028 10.0536 128.028 6.70241C128.028 3.39588 125.4 3.12779 118.103 3.12779H113.707ZM113.707 12.6452V24.8883H118.103C126.261 24.8883 129.207 24.1287 129.207 18.588C129.207 13.807 125.717 12.6452 118.103 12.6452H113.707Z" fill="#911917"/>
<path d="M136.911 26.9437C136.911 26.8096 136.956 26.4969 137.364 26.1841C137.772 25.8713 139.313 25.4245 139.72 25.1117C140.128 24.7989 140.264 23.95 140.264 23.0563V5.00446C140.264 4.06613 140.128 3.26184 139.72 2.94906C139.313 2.63628 137.817 2.18945 137.364 1.87667C136.911 1.56389 136.911 1.25111 136.911 1.11707H149.464C149.464 1.25111 149.419 1.56389 149.011 1.87667C148.558 2.18945 147.062 2.63628 146.654 2.94906C146.246 3.26184 146.111 4.11081 146.111 5.00446V10.277H150.507C159.842 10.277 168.045 10.5004 168.045 18.6327C168.045 26.765 158.709 26.9884 150.507 26.9884H136.911V26.9437ZM146.111 12.2878V24.8883H150.507C158.664 24.8883 161.61 24.1287 161.61 18.588C161.61 13.807 158.12 12.2878 150.507 12.2878H146.111Z" fill="#911917"/>
<path d="M33.2192 49.8659V44.9508H35.3946C35.6212 44.9508 35.8478 44.9955 36.0291 45.0849C36.2103 45.1743 36.3916 45.3083 36.5276 45.4423C36.6635 45.5764 36.7995 45.7551 36.8448 45.9785C36.9355 46.1573 36.9808 46.3807 36.9808 46.5594C36.9808 46.8275 36.9354 47.0956 36.7995 47.319C36.6635 47.5424 36.4823 47.7658 36.2557 47.8999C36.0291 48.0339 35.7571 48.1233 35.4399 48.1233H34.035V49.8213H33.2192V49.8659ZM34.035 47.4978H35.3946C35.5305 47.4978 35.6665 47.4531 35.8025 47.3637C35.9384 47.2743 36.0291 47.185 36.0744 47.0509C36.1197 46.9169 36.165 46.7381 36.165 46.5594C36.165 46.3807 36.1197 46.202 36.0291 46.0679C35.9384 45.9339 35.8478 45.8445 35.7118 45.7551C35.5759 45.6658 35.4399 45.6211 35.3039 45.6211H33.9897V47.4978H34.035Z" fill="#911917"/>
<path d="M42.3284 49.1957V49.8659H38.7935V44.9508H42.2831V45.6211H39.6092V47.0509H41.9205V47.6765H39.6092V49.1957H42.3284Z" fill="#911917"/>
<path d="M43.7788 47.3637C43.7788 47.0509 43.8241 46.7828 43.9601 46.4701C44.0507 46.202 44.232 45.9339 44.4586 45.6658C44.6852 45.4424 44.9571 45.2189 45.229 45.0849C45.5463 44.9508 45.9088 44.8615 46.2714 44.8615C46.7246 44.8615 47.1325 44.9508 47.495 45.1743C47.8123 45.3977 48.0842 45.6211 48.2655 45.9339L47.631 46.336C47.5403 46.1573 47.4044 45.9785 47.2684 45.8445C47.1325 45.7105 46.9512 45.6658 46.7699 45.6211C46.5886 45.5764 46.4073 45.5317 46.2714 45.5317C45.9995 45.5317 45.7729 45.5764 45.5463 45.7105C45.365 45.7998 45.1837 45.9339 45.0478 46.1126C44.9118 46.2913 44.8212 46.4701 44.7305 46.6935C44.6852 46.9169 44.6399 47.1403 44.6399 47.319C44.6399 47.5424 44.6852 47.8105 44.7758 47.9893C44.8665 48.2127 44.9571 48.3914 45.1384 48.5701C45.2744 48.7489 45.4556 48.8829 45.6822 48.9723C45.8635 49.0617 46.0901 49.1063 46.362 49.1063C46.5433 49.1063 46.7246 49.0617 46.9059 49.017C47.0871 48.9723 47.2684 48.8829 47.4044 48.7489C47.5403 48.6148 47.6763 48.4808 47.7669 48.3021L48.4467 48.6595C48.3561 48.8829 48.1748 49.1063 47.9482 49.2851C47.7216 49.4638 47.4497 49.5979 47.1778 49.6872C46.9059 49.7766 46.6339 49.8213 46.362 49.8213C45.9995 49.8213 45.6822 49.7319 45.365 49.5979C45.0478 49.4638 44.8212 49.2404 44.5946 49.017C44.368 48.7936 44.1867 48.4808 44.096 48.2127C43.8241 47.9893 43.7788 47.6765 43.7788 47.3637Z" fill="#911917"/>
<path d="M53.885 45.6211H52.1629V49.8659H51.3471V45.6211H49.625V44.9508H53.885V45.6211Z" fill="#911917"/>
<path d="M57.5557 49.9106C57.1931 49.9106 56.8759 49.8213 56.5586 49.6872C56.2414 49.5532 56.0148 49.3744 55.7882 49.1063C55.5616 48.8829 55.3803 48.6148 55.2897 48.3021C55.1537 47.9893 55.1084 47.6765 55.1084 47.3637C55.1084 47.0509 55.1537 46.7382 55.2897 46.4254C55.4256 46.1126 55.6069 45.8445 55.8335 45.6211C56.0601 45.3977 56.332 45.2189 56.6039 45.0849C56.9212 44.9508 57.2384 44.8615 57.601 44.8615C57.9635 44.8615 58.3261 44.9508 58.598 45.0849C58.9153 45.2189 59.1418 45.4424 59.3684 45.6658C59.595 45.8892 59.7763 46.1573 59.867 46.4701C60.0029 46.7828 60.0482 47.0509 60.0482 47.4084C60.0482 47.7212 60.0029 48.034 59.867 48.3467C59.731 48.6595 59.595 48.9276 59.3684 49.151C59.1418 49.3744 58.8699 49.5532 58.598 49.6872C58.2808 49.8659 57.9182 49.9106 57.5557 49.9106ZM55.9242 47.4084C55.9242 47.6318 55.9695 47.8552 56.0148 48.0786C56.1054 48.3021 56.1961 48.4808 56.332 48.6595C56.468 48.8382 56.6493 48.9723 56.8305 49.0617C57.0118 49.151 57.2384 49.1957 57.5103 49.1957C57.7823 49.1957 58.0089 49.151 58.1901 49.0617C58.3714 48.9723 58.5527 48.8382 58.6887 48.6595C58.8246 48.4808 58.9152 48.3021 59.0059 48.0786C59.0965 47.8552 59.0965 47.6318 59.0965 47.4084C59.0965 47.185 59.0512 46.9616 58.9606 46.7382C58.8699 46.5147 58.7793 46.336 58.6433 46.1573C58.5074 45.9786 58.3261 45.8445 58.1448 45.7551C57.9635 45.6658 57.7369 45.6211 57.465 45.6211C57.1931 45.6211 56.9665 45.6658 56.7852 45.7551C56.6039 45.8445 56.4227 45.9786 56.2867 46.1573C56.1508 46.336 56.0601 46.5147 55.9695 46.7382C55.8788 46.9616 55.9242 47.185 55.9242 47.4084Z" fill="#911917"/>
<path d="M61.9067 49.8659V44.9508H64.0821C64.3087 44.9508 64.5353 44.9955 64.7166 45.0849C64.8978 45.1743 65.0791 45.3083 65.2151 45.4423C65.351 45.5764 65.487 45.7551 65.5323 45.9785C65.623 46.1573 65.6683 46.3807 65.6683 46.5594C65.6683 46.8275 65.6229 47.0956 65.487 47.319C65.351 47.5424 65.1698 47.7658 64.9432 47.8999C64.7166 48.0339 64.4446 48.1233 64.1274 48.1233H62.7225V49.8213H61.9067V49.8659ZM62.7225 47.4978H64.0821C64.218 47.4978 64.354 47.4531 64.49 47.3637C64.6259 47.2743 64.7166 47.185 64.7619 47.0509C64.8072 46.9169 64.8525 46.7381 64.8525 46.5594C64.8525 46.3807 64.8072 46.202 64.7166 46.0679C64.6259 45.9339 64.5353 45.8445 64.3993 45.7551C64.2634 45.6658 64.1274 45.6211 63.9914 45.6211H62.6772V47.4978H62.7225Z" fill="#911917"/>
<path d="M68.5687 44.9508H69.3391L71.3332 49.8659H70.4721L69.9736 48.5255H67.8889L67.3904 49.8659H66.5293L68.5687 44.9508ZM69.7923 47.9446L68.9766 45.7998L68.1608 47.9446H69.7923Z" fill="#911917"/>
<path d="M77.2699 44.9508V49.8659H76.4542V47.6765H73.8709V49.8659H73.0552V44.9508H73.8709V47.0062H76.4542V44.9508H77.2699Z" fill="#911917"/>
<path d="M94.2649 45.6211H92.5428V49.8659H91.727V45.6211H90.0049V44.9508H94.2649V45.6211Z" fill="#911917"/>
<path d="M95.9868 49.8659V44.9508H98.1622C98.3888 44.9508 98.6154 44.9955 98.7966 45.0849C98.9779 45.1743 99.1592 45.3083 99.2952 45.4423C99.4311 45.5764 99.5671 45.7551 99.6124 45.9785C99.703 46.1573 99.7484 46.3807 99.7484 46.5594C99.7484 46.8275 99.703 47.0956 99.5671 47.319C99.4311 47.5424 99.2498 47.7658 99.0232 47.8999C98.7966 48.0339 98.5247 48.1233 98.2075 48.1233H96.8026V49.8213H95.9868V49.8659ZM96.8026 47.4978H98.1622C98.2981 47.4978 98.4341 47.4531 98.57 47.3637C98.706 47.2743 98.7966 47.185 98.842 47.0509C98.8873 46.9169 98.9326 46.7381 98.9326 46.5594C98.9326 46.3807 98.8873 46.202 98.7966 46.0679C98.706 45.9339 98.6154 45.8445 98.4794 45.7551C98.3434 45.6658 98.2075 45.6211 98.0715 45.6211H96.7572V47.4978H96.8026Z" fill="#911917"/>
<path d="M102.649 44.9508H103.419L105.413 49.8659H104.552L104.054 48.5255H101.969L101.47 49.8659H100.609L102.649 44.9508ZM103.827 47.9446L103.011 45.7998L102.196 47.9446H103.827Z" fill="#911917"/>
<path d="M107.09 49.8659V44.9508H107.906V47.0062H108.495L110.127 44.9508H111.033L109.13 47.3637L111.169 49.9106H110.172L108.495 47.7659H107.906V49.9106H107.09V49.8659Z" fill="#911917"/>
<path d="M116.743 45.6211H115.021V49.8659H114.206V45.6211H112.483V44.9508H116.743V45.6211Z" fill="#911917"/>
<path d="M118.511 49.8659V44.9508H119.326V48.7936L122.091 44.9508H122.861V49.8659H122.046V46.0679L119.326 49.8659H118.511Z" fill="#911917"/>
<path d="M125.037 49.8659V44.9508H127.212C127.439 44.9508 127.666 44.9955 127.847 45.0849C128.028 45.1743 128.209 45.3083 128.345 45.4423C128.481 45.5764 128.617 45.7551 128.663 45.9785C128.753 46.1573 128.799 46.3807 128.799 46.5594C128.799 46.8275 128.753 47.0956 128.617 47.319C128.481 47.5424 128.3 47.7658 128.074 47.8999C127.847 48.0339 127.575 48.1233 127.258 48.1233H125.853V49.8213H125.037V49.8659ZM125.853 47.4978H127.212C127.348 47.4978 127.484 47.4531 127.62 47.3637C127.756 47.2743 127.847 47.185 127.892 47.0509C127.938 46.9169 127.983 46.7381 127.983 46.5594C127.983 46.3807 127.938 46.202 127.847 46.0679C127.756 45.9339 127.666 45.8445 127.53 45.7551C127.394 45.6658 127.258 45.6211 127.122 45.6211H125.808V47.4978H125.853Z" fill="#911917"/>
<path d="M87.1497 47.319H80.9409V47.7659H87.1497V47.319Z" fill="#911917"/>
<path d="M131.155 50V45.6211H129.886V44.9508H131.971V46.8275H133.059C133.421 46.8275 133.738 46.8722 134.01 47.0062C134.282 47.1403 134.464 47.319 134.599 47.5424C134.735 47.7659 134.781 48.0786 134.781 48.3914C134.781 48.7042 134.735 48.9723 134.599 49.1957C134.464 49.4191 134.282 49.6425 134.01 49.7766C133.738 49.9106 133.466 50 133.104 50H131.155ZM131.971 49.3297H133.013C133.24 49.3297 133.421 49.2851 133.557 49.1957C133.693 49.1063 133.784 49.017 133.874 48.8382C133.92 48.7042 133.965 48.5255 133.965 48.3467C133.965 48.168 133.92 48.0339 133.874 47.8999C133.829 47.7658 133.693 47.6318 133.557 47.5424C133.421 47.4531 133.24 47.4084 132.968 47.4084H131.971V49.3297Z" fill="#911917"/>
</g>
<defs>
<clipPath id="clip0_207_7103">
<rect width="168" height="50" fill="white"/>
</clipPath>
</defs>
</svg>
