<svg width="326" height="96" viewBox="0 0 326 96" fill="none" xmlns="http://www.w3.org/2000/svg">
<g clip-path="url(#clip0_278_459)">
<path d="M0.5 51.7317C0.5 51.4744 0.587672 50.8738 1.37672 50.2733C2.16577 49.6728 5.14661 48.8149 5.93566 48.2143C6.72471 47.6138 6.98773 45.9838 6.98773 44.2679V9.60842C6.98773 7.80681 6.72471 6.26258 5.93566 5.66204C5.14661 5.06151 2.25344 4.28939 1.37672 3.60306C0.5 3.00253 0.5 2.40199 0.5 2.14462H26.8016C41.4428 2.14462 58.3635 1.3725 58.3635 12.8685C58.3635 17.587 53.8046 20.7612 48.2812 21.9623C54.5936 23.2492 60.5553 27.7103 60.5553 35.6889C60.643 51.3028 42.5825 51.7317 26.8016 51.7317H0.5ZM18.2974 6.00521V20.4181H26.8016C40.9168 20.4181 46.0018 19.3028 46.0018 12.8685C46.0018 6.51995 40.9168 6.00521 26.8016 6.00521H18.2974ZM18.2974 24.2787V47.7854H26.8016C42.5825 47.7854 48.2812 46.3269 48.2812 35.6889C48.2812 26.5092 41.5305 24.2787 26.8016 24.2787H18.2974Z" fill="#BAA37F"/>
<path d="M87.4706 2.14453C87.4706 2.4019 87.3829 3.00244 86.5939 3.60298C85.7171 4.20351 82.824 5.06142 82.0349 5.66196C81.2459 6.26249 80.9829 7.89252 80.9829 9.60834V19.7317H110.879V9.60834C110.879 7.80673 110.616 6.26249 109.827 5.66196C109.038 5.06142 106.145 4.20351 105.268 3.60298C104.391 3.00244 104.391 2.4019 104.391 2.14453H128.676C128.676 2.4019 128.589 3.00244 127.8 3.60298C126.923 4.20351 124.03 5.06142 123.241 5.66196C122.452 6.26249 122.189 7.89252 122.189 9.60834V44.1821C122.189 45.9837 122.452 47.5279 123.241 48.1284C124.03 48.729 126.923 49.5869 127.8 50.1874C128.676 50.788 128.676 51.3885 128.676 51.6459H104.391C104.391 51.3885 104.479 50.788 105.268 50.1874C106.057 49.5869 109.038 48.729 109.827 48.1284C110.616 47.5279 110.879 45.8979 110.879 44.1821V23.5923H80.9829V44.1821C80.9829 45.9837 81.2459 47.5279 82.0349 48.1284C82.824 48.729 85.7171 49.5869 86.5939 50.1874C87.4706 50.788 87.4706 51.3885 87.4706 51.6459H63.1855C63.1855 51.3885 63.2731 50.788 64.0622 50.1874C64.8512 49.5869 67.8321 48.729 68.6211 48.1284C69.4102 47.5279 69.6732 45.8979 69.6732 44.1821V9.60834C69.6732 7.80673 69.4102 6.26249 68.6211 5.66196C67.8321 5.06142 64.9389 4.2893 64.0622 3.60298C63.1855 3.00244 63.1855 2.4019 63.1855 2.14453H87.4706Z" fill="#BAA37F"/>
<path d="M165.674 0C183.734 0 200.129 9.95174 200.129 26.9383C200.129 42.5523 182.069 53.8767 165.674 53.8767C147.614 53.8767 131.219 43.9249 131.219 26.9383C131.219 10.6381 149.893 0 165.674 0ZM165.674 49.9303C182.069 49.9303 187.68 41.0938 187.68 26.9383C187.68 17.7587 180.315 3.94638 165.674 3.94638C149.279 3.94638 143.668 12.7828 143.668 26.9383C143.668 36.118 151.033 49.9303 165.674 49.9303Z" fill="#BAA37F"/>
<path d="M202.672 51.7321C202.672 51.4747 202.759 50.8742 203.548 50.2736C204.337 49.6731 207.318 48.8152 208.107 48.2147C208.896 47.6141 209.159 45.9841 209.159 44.2683V9.60877C209.159 7.80716 208.896 6.26293 208.107 5.66239C207.318 5.06185 204.425 4.20395 203.548 3.60341C202.672 3.00287 202.672 2.40234 202.672 2.14496H228.973C243.614 2.14496 260.623 1.37285 260.623 12.9546C260.623 17.6731 256.064 20.8474 250.54 22.0485C256.853 23.3353 262.815 27.7964 262.815 35.775C262.815 51.3889 244.754 51.8179 228.885 51.8179H202.672V51.7321ZM220.469 6.00555V20.4184H228.973C243.088 20.4184 248.173 19.3031 248.173 12.8688C248.173 6.5203 243.088 6.00555 228.973 6.00555H220.469ZM220.469 24.279V47.7857H228.973C244.754 47.7857 250.453 46.3273 250.453 35.6892C250.453 26.5096 243.702 24.279 228.973 24.279H220.469Z" fill="#BAA37F"/>
<path d="M265.357 51.7317C265.357 51.4743 265.445 50.8738 266.234 50.2732C267.023 49.6727 270.004 48.8148 270.793 48.2142C271.582 47.6137 271.845 45.9837 271.845 44.2679V9.60834C271.845 7.80673 271.582 6.26249 270.793 5.66196C270.004 5.06142 267.11 4.20351 266.234 3.60298C265.357 3.00244 265.357 2.4019 265.357 2.14453H289.642C289.642 2.4019 289.554 3.00244 288.765 3.60298C287.889 4.20351 284.996 5.06142 284.206 5.66196C283.417 6.26249 283.154 7.89252 283.154 9.60834V19.7317H291.659C309.719 19.7317 325.588 20.1606 325.588 35.7746C325.588 51.3885 307.527 51.8175 291.659 51.8175H265.357V51.7317ZM283.154 23.5923V47.7853H291.659C307.44 47.7853 313.138 46.3268 313.138 35.6888C313.138 26.5091 306.387 23.5923 291.659 23.5923H283.154Z" fill="#BAA37F"/>
<path d="M64.7635 95.7427V86.3057H68.9718C69.4102 86.3057 69.8485 86.3915 70.1992 86.563C70.5499 86.7346 70.9006 86.992 71.1636 87.2494C71.4266 87.5067 71.6896 87.8499 71.7773 88.2789C71.9527 88.622 72.0403 89.051 72.0403 89.3941C72.0403 89.9089 71.9526 90.4236 71.6896 90.8526C71.4266 91.2815 71.0759 91.7105 70.6376 91.9679C70.1992 92.2252 69.6732 92.3968 69.0595 92.3968H66.3416V95.6569H64.7635V95.7427ZM66.3416 91.1957H68.9718C69.2348 91.1957 69.4978 91.11 69.7608 90.9384C70.0239 90.7668 70.1992 90.5952 70.2869 90.3378C70.3746 90.0805 70.4622 89.7373 70.4622 89.3941C70.4622 89.051 70.3746 88.7078 70.1992 88.4504C70.0239 88.1931 69.8485 88.0215 69.5855 87.8499C69.3225 87.6783 69.0595 87.5925 68.7965 87.5925H66.254V91.1957H66.3416Z" fill="#BAA37F"/>
<path d="M82.3856 94.4558V95.7427H75.5472V86.3057H82.298V87.5925H77.1253V90.3378H81.5966V91.5389H77.1253V94.4558H82.3856Z" fill="#BAA37F"/>
<path d="M85.1911 90.9386C85.1911 90.338 85.2788 89.8233 85.5418 89.2227C85.7171 88.708 86.0678 88.1933 86.5062 87.6785C86.9445 87.2496 87.4706 86.8206 87.9966 86.5632C88.6103 86.3059 89.3117 86.1343 90.0131 86.1343C90.8898 86.1343 91.6788 86.3059 92.3802 86.7348C92.9939 87.1638 93.5199 87.5927 93.8706 88.1933L92.6432 88.9654C92.4679 88.6222 92.2049 88.279 91.9418 88.0217C91.6788 87.7643 91.3281 87.6785 90.9774 87.5927C90.6268 87.5069 90.2761 87.4211 90.0131 87.4211C89.487 87.4211 89.0487 87.5069 88.6103 87.7643C88.2596 87.9359 87.9089 88.1933 87.6459 88.5364C87.3829 88.8796 87.2076 89.2227 87.0322 89.6517C86.9445 90.0807 86.8569 90.5096 86.8569 90.8528C86.8569 91.2817 86.9445 91.7965 87.1199 92.1396C87.2952 92.5686 87.4706 92.9118 87.8213 93.2549C88.0843 93.5981 88.435 93.8555 88.8733 94.027C89.224 94.1986 89.6624 94.2844 90.1884 94.2844C90.5391 94.2844 90.8898 94.1986 91.2405 94.1128C91.5912 94.027 91.9418 93.8555 92.2049 93.5981C92.4679 93.3407 92.7309 93.0833 92.9062 92.7402L94.2213 93.4265C94.046 93.8555 93.6953 94.2844 93.2569 94.6276C92.8186 94.9707 92.2925 95.2281 91.7665 95.3997C91.2405 95.5713 90.7144 95.6571 90.1884 95.6571C89.487 95.6571 88.8733 95.4855 88.2596 95.2281C87.6459 94.9707 87.2076 94.5418 86.7692 94.1128C86.3308 93.6839 85.9802 93.0833 85.8048 92.5686C85.2788 92.1396 85.1911 91.5391 85.1911 90.9386Z" fill="#BAA37F"/>
<path d="M104.742 87.5925H101.41V95.7427H99.8323V87.5925H96.5008V86.3057H104.742V87.5925Z" fill="#BAA37F"/>
<path d="M111.843 95.8286C111.142 95.8286 110.528 95.6571 109.915 95.3997C109.301 95.1423 108.863 94.7992 108.424 94.2844C107.986 93.8555 107.635 93.3407 107.46 92.7402C107.197 92.1396 107.109 91.5391 107.109 90.9386C107.109 90.338 107.197 89.7375 107.46 89.137C107.723 88.5364 108.073 88.0217 108.512 87.5927C108.95 87.1638 109.476 86.8206 110.002 86.5632C110.616 86.3059 111.23 86.1343 111.931 86.1343C112.632 86.1343 113.334 86.3059 113.86 86.5632C114.474 86.8206 114.912 87.2496 115.35 87.6785C115.789 88.1075 116.139 88.6222 116.315 89.2227C116.578 89.8233 116.665 90.338 116.665 91.0244C116.665 91.6249 116.578 92.2254 116.315 92.826C116.052 93.4265 115.789 93.9412 115.35 94.3702C114.912 94.7992 114.386 95.1423 113.86 95.3997C113.246 95.7429 112.545 95.8286 111.843 95.8286ZM108.687 91.0244C108.687 91.4533 108.775 91.8823 108.863 92.3112C109.038 92.7402 109.213 93.0833 109.476 93.4265C109.739 93.7697 110.09 94.027 110.441 94.1986C110.791 94.3702 111.23 94.456 111.756 94.456C112.282 94.456 112.72 94.3702 113.071 94.1986C113.421 94.027 113.772 93.7697 114.035 93.4265C114.298 93.0833 114.474 92.7402 114.649 92.3112C114.824 91.8823 114.824 91.4533 114.824 91.0244C114.824 90.5954 114.737 90.1664 114.561 89.7375C114.386 89.3085 114.211 88.9654 113.948 88.6222C113.684 88.2791 113.334 88.0217 112.983 87.8501C112.632 87.6785 112.194 87.5927 111.668 87.5927C111.142 87.5927 110.704 87.6785 110.353 87.8501C110.002 88.0217 109.652 88.2791 109.389 88.6222C109.126 88.9654 108.95 89.3085 108.775 89.7375C108.6 90.1664 108.687 90.5954 108.687 91.0244Z" fill="#BAA37F"/>
<path d="M120.26 95.7427V86.3057H124.468C124.907 86.3057 125.345 86.3915 125.696 86.563C126.046 86.7346 126.397 86.992 126.66 87.2494C126.923 87.5067 127.186 87.8499 127.274 88.2789C127.449 88.622 127.537 89.051 127.537 89.3941C127.537 89.9089 127.449 90.4236 127.186 90.8526C126.923 91.2815 126.572 91.7105 126.134 91.9679C125.696 92.2252 125.17 92.3968 124.556 92.3968H121.838V95.6569H120.26V95.7427ZM121.838 91.1957H124.468C124.731 91.1957 124.994 91.11 125.257 90.9384C125.52 90.7668 125.696 90.5952 125.783 90.3378C125.871 90.0805 125.959 89.7373 125.959 89.3941C125.959 89.051 125.871 88.7078 125.696 88.4504C125.52 88.1931 125.345 88.0215 125.082 87.8499C124.819 87.6783 124.556 87.5925 124.293 87.5925H121.75V91.1957H121.838Z" fill="#BAA37F"/>
<path d="M133.148 86.3057H134.638L138.496 95.7427H136.83L135.866 93.1689H131.833L130.868 95.7427H129.202L133.148 86.3057ZM135.515 92.0537L133.937 87.9357L132.359 92.0537H135.515Z" fill="#BAA37F"/>
<path d="M149.981 86.3057V95.7427H148.403V91.5389H143.405V95.7427H141.827V86.3057H143.405V90.252H148.403V86.3057H149.981Z" fill="#BAA37F"/>
<path d="M182.858 87.5925H179.526V95.7427H177.948V87.5925H174.617V86.3057H182.858V87.5925Z" fill="#BAA37F"/>
<path d="M186.189 95.7427V86.3057H190.397C190.836 86.3057 191.274 86.3915 191.625 86.563C191.976 86.7346 192.326 86.992 192.589 87.2494C192.852 87.5067 193.115 87.8499 193.203 88.2789C193.378 88.622 193.466 89.051 193.466 89.3941C193.466 89.9089 193.378 90.4236 193.115 90.8526C192.852 91.2815 192.502 91.7105 192.063 91.9679C191.625 92.2252 191.099 92.3968 190.485 92.3968H187.767V95.6569H186.189V95.7427ZM187.767 91.1957H190.397C190.66 91.1957 190.923 91.11 191.187 90.9384C191.45 90.7668 191.625 90.5952 191.713 90.3378C191.8 90.0805 191.888 89.7373 191.888 89.3941C191.888 89.051 191.8 88.7078 191.625 88.4504C191.45 88.1931 191.274 88.0215 191.011 87.8499C190.748 87.6783 190.485 87.5925 190.222 87.5925H187.68V91.1957H187.767Z" fill="#BAA37F"/>
<path d="M199.077 86.3057H200.567L204.425 95.7427H202.759L201.795 93.1689H197.762L196.798 95.7427H195.132L199.077 86.3057ZM201.356 92.0537L199.778 87.9357L198.2 92.0537H201.356Z" fill="#BAA37F"/>
<path d="M207.669 95.7427V86.3057H209.247V90.252H210.387L213.543 86.3057H215.296L211.614 90.9384L215.559 95.8285H213.631L210.387 91.7105H209.247V95.8285H207.669V95.7427Z" fill="#BAA37F"/>
<path d="M226.343 87.5925H223.011V95.7427H221.433V87.5925H218.102V86.3057H226.343V87.5925Z" fill="#BAA37F"/>
<path d="M229.762 95.7427V86.3057H231.34V93.6837L236.688 86.3057H238.179V95.7427H236.601V88.4504L231.34 95.7427H229.762Z" fill="#BAA37F"/>
<path d="M242.387 95.7427V86.3057H246.595C247.034 86.3057 247.472 86.3915 247.823 86.563C248.173 86.7346 248.524 86.992 248.787 87.2494C249.05 87.5067 249.313 87.8499 249.401 88.2789C249.576 88.622 249.664 89.051 249.664 89.3941C249.664 89.9089 249.576 90.4236 249.313 90.8526C249.05 91.2815 248.699 91.7105 248.261 91.9679C247.823 92.2252 247.297 92.3968 246.683 92.3968H243.965V95.6569H242.387V95.7427ZM243.965 91.1957H246.595C246.858 91.1957 247.121 91.11 247.384 90.9384C247.647 90.7668 247.823 90.5952 247.91 90.3378C247.998 90.0805 248.086 89.7373 248.086 89.3941C248.086 89.051 247.998 88.7078 247.823 88.4504C247.647 88.1931 247.472 88.0215 247.209 87.8499C246.946 87.6783 246.683 87.5925 246.42 87.5925H243.877V91.1957H243.965Z" fill="#BAA37F"/>
<path d="M169.093 90.853H157.082V91.7109H169.093V90.853Z" fill="#BAA37F"/>
<path d="M254.223 96V87.5925H251.768V86.3057H255.801V89.9089H257.905C258.606 89.9089 259.22 89.9947 259.746 90.252C260.272 90.5094 260.623 90.8526 260.886 91.2815C261.149 91.7105 261.236 92.311 261.236 92.9116C261.236 93.5121 261.149 94.0268 260.886 94.4558C260.623 94.8848 260.272 95.3137 259.746 95.5711C259.22 95.8285 258.694 96 257.993 96H254.223ZM255.801 94.7132H257.817C258.256 94.7132 258.606 94.6274 258.869 94.4558C259.132 94.2842 259.308 94.1126 259.483 93.7695C259.571 93.5121 259.658 93.1689 259.658 92.8258C259.658 92.4826 259.571 92.2252 259.483 91.9679C259.395 91.7105 259.132 91.4531 258.869 91.2815C258.606 91.11 258.256 91.0242 257.73 91.0242H255.801V94.7132Z" fill="#BAA37F"/>
</g>
<defs>
<clipPath id="clip0_278_459">
<rect width="325" height="96" fill="white" transform="translate(0.5)"/>
</clipPath>
</defs>
</svg>
