<svg width="66" height="108" viewBox="0 0 66 108" fill="none" xmlns="http://www.w3.org/2000/svg">
<g clip-path="url(#clip0_207_7188)">
<path fill-rule="evenodd" clip-rule="evenodd" d="M32.9998 0C8.58885 0 -7.23306 25.4781 3.39022 47.3486C6.32858 53.4363 9.94502 59.0731 13.5615 64.9353C19.4382 74.1795 25.0889 83.4238 28.0272 93.7954C29.1573 97.6284 30.0615 101.687 30.7395 106.196C31.1916 108.902 35.0341 108.902 35.2601 106.196C35.9382 101.687 36.8423 97.6284 37.9724 93.7954C40.9108 83.4238 46.7875 74.1795 52.4382 64.9353C56.0546 59.2985 59.6711 53.4363 62.6094 47.3486C73.2327 25.4781 57.4108 0 32.9998 0Z" fill="#911917"/>
</g>
<path d="M50.8491 21.9565C50.5889 21.5507 50.0974 21.3478 49.3457 21.3478C48.7386 21.3478 48.0737 21.4928 47.3798 21.8116C46.6859 22.1304 45.9054 22.6232 45.0959 23.3188C44.2864 24.0145 43.3901 24.942 42.4072 26.0725C41.4531 27.1739 40.3834 28.5652 39.227 30.1884C38.6777 30.2754 38.273 30.2754 37.8104 30.2464C37.5502 30.2174 37.29 30.2174 37.0009 30.1884C36.7696 30.1594 36.4805 30.1304 36.1625 30.1304C36.5383 29.6087 36.8853 29.087 37.2322 28.5942C37.6369 28.0145 38.0417 27.4348 38.4464 26.8551C38.8512 26.2754 39.2848 25.6957 39.7185 25.1159C40.1522 24.5362 40.6147 23.9275 41.1351 23.3188C41.4242 23.087 41.7133 22.8261 41.9446 22.5652C42.1759 22.3043 42.3783 22.0725 42.4939 21.8406L42.5806 21.6667L41.3664 21.4348L40.0365 22.971C39.574 23.1449 38.9957 23.3188 38.3308 23.4348C37.6659 23.5797 36.9142 23.7246 36.1625 23.8406C35.3819 23.9855 34.6013 24.1304 33.8208 24.2754C33.3582 24.3623 32.8956 24.4783 32.462 24.5942C32.3174 24.3623 32.115 24.1594 31.8838 23.9565C31.5946 23.6957 31.2188 23.4928 30.7562 23.3188C31.2477 23.1739 31.7103 23 32.115 22.7971C32.6643 22.5362 33.1558 22.2174 33.6184 21.8986C34.052 21.5507 34.4568 21.1739 34.7748 20.7971C35.0928 20.3913 35.353 19.9855 35.5554 19.5797C35.9312 18.7971 36.0469 18.1304 35.9601 17.5507C35.8445 16.971 35.5554 16.4783 35.0639 16.1014C34.6013 15.7246 33.9653 15.4348 33.1847 15.2609C32.4041 15.087 31.5368 15 30.5828 15C29.1083 15 27.7206 15.2029 26.4486 15.6087C25.1765 16.0145 24.0201 16.5072 23.0082 17.1449C21.9964 17.7826 21.1001 18.4783 20.3774 19.2609C19.6546 20.0435 19.0764 20.8261 18.7295 21.5797C18.4404 22.1594 18.2958 22.7101 18.238 23.2319C18.1802 23.7826 18.2669 24.2464 18.4982 24.6522C18.7295 25.058 19.0764 25.4058 19.5968 25.6377C20.0883 25.8696 20.7532 25.9855 21.5338 25.9855C22.0253 25.9855 22.4878 25.9275 22.8926 25.8116L22.9793 25.7826L23.1239 24.7681L22.9215 24.7971C22.6035 24.8551 22.3144 24.8841 22.0542 24.8841C21.447 24.8841 20.9556 24.7971 20.5797 24.5942C20.2328 24.4203 19.9726 24.1884 19.8281 23.8696C19.6835 23.5797 19.6257 23.2319 19.6835 22.8261C19.7413 22.4203 19.857 21.9565 20.0883 21.4928C20.4063 20.8551 20.8977 20.1594 21.5338 19.4638C22.1698 18.7681 22.9504 18.1304 23.8466 17.5797C24.7428 17.029 25.7547 16.5652 26.8822 16.1884C28.0097 15.8406 29.224 15.6667 30.496 15.6667C31.161 15.6667 31.8259 15.7536 32.4041 15.8986C32.9824 16.0435 33.4738 16.3043 33.8497 16.6232C34.1966 16.942 34.4279 17.3188 34.5146 17.8116C34.6013 18.2754 34.4857 18.8551 34.1677 19.5217C33.9942 19.8696 33.734 20.2174 33.416 20.5652C33.098 20.913 32.7222 21.2319 32.2885 21.5507C31.8548 21.8406 31.3634 22.1304 30.8719 22.3623C30.3515 22.5942 29.8022 22.7681 29.2529 22.913C28.9638 22.8841 28.6458 22.8551 28.3278 22.8261C28.7036 22.2754 29.0505 21.7536 29.3685 21.2899C29.7444 20.7681 30.0913 20.2754 30.4093 19.8696C30.7273 19.4348 31.0453 19.058 31.3345 18.7101C31.6236 18.3623 31.9127 18.0435 32.2018 17.7246L32.3752 17.5507L31.0453 17.2609V17.3478C29.8889 18.6232 28.2988 20.7971 26.304 23.8116C25.5813 24.8841 24.8874 25.8986 24.1646 26.7971C23.4419 27.7246 22.748 28.5362 22.0542 29.2609C21.3603 29.9855 20.6954 30.5942 20.0304 31.087C19.3944 31.5797 18.7873 31.9275 18.238 32.1594C18.0356 32.1304 17.8621 32.1304 17.6598 32.1014C17.2839 32.0725 16.8503 32.0725 16.4166 32.1014C16.2142 32.1014 16.0119 32.1304 15.7806 32.1594H15.7228L15 33.1449L15.2024 33.2029C16.0697 33.4638 17.1683 33.4058 18.3825 32.971C18.874 33.058 19.4811 33.1739 20.175 33.2609C20.2328 33.2609 20.2906 33.2899 20.3485 33.2899C19.7992 33.8696 19.3944 34.4783 19.1053 35.087C18.7873 35.7536 18.6427 36.3623 18.6427 36.913C18.6716 37.4638 18.8162 37.9565 19.1342 38.3623C19.4522 38.7681 19.8859 39.087 20.4641 39.3478C21.0134 39.5797 21.7072 39.7246 22.4878 39.7536C22.6035 39.7536 22.748 39.7536 22.8637 39.7536C24.0201 39.7536 25.0898 39.5797 26.1016 39.2319C27.2292 38.8551 28.3278 38.2754 29.3685 37.5217C30.4093 36.7681 31.4501 35.8406 32.462 34.7391C33.4449 33.6667 34.4568 32.4203 35.4976 31.029C36.1625 31.029 36.7407 31.029 37.2322 31.029C37.6659 31.029 38.1573 31.029 38.6777 30.971C38.5043 31.2029 38.3308 31.4638 38.1573 31.7246C37.9261 32.0725 37.6659 32.4783 37.3768 32.913C37.0298 33.4638 36.5962 34.0725 36.1336 34.7971C35.1217 35.4058 34.2544 36.1304 33.5317 36.8841C32.8089 37.6667 32.2307 38.4493 31.8838 39.2029C31.5946 39.7826 31.4501 40.3333 31.3923 40.8551C31.3345 41.4058 31.4212 41.8696 31.6525 42.2754C31.8838 42.6812 32.2307 43.029 32.7511 43.2609C33.2425 43.4928 33.9075 43.6087 34.6881 43.6087C35.1796 43.6087 35.6421 43.5507 36.0469 43.4348L36.1336 43.4058L36.2782 42.3913L36.0758 42.4203C35.7578 42.4783 35.4687 42.5072 35.2085 42.5072C34.6013 42.5072 34.1099 42.4203 33.734 42.2174C33.3871 42.0435 33.1269 41.8116 32.9824 41.4928C32.8378 41.2029 32.78 40.8551 32.8378 40.4493C32.8956 40.0435 33.0113 39.5797 33.2425 39.1159C33.5606 38.4783 34.052 37.7826 34.6881 37.087C35.3241 36.3913 36.1047 35.7536 37.0009 35.2029C37.8971 34.6522 38.909 34.1884 40.0365 33.8116C41.164 33.4638 42.3494 33.2899 43.6503 33.2899C44.3153 33.2899 44.9802 33.3768 45.5584 33.5217C46.1366 33.6667 46.6281 33.9275 47.004 34.2464C47.3509 34.5652 47.5822 34.942 47.6689 35.4348C47.7556 35.8986 47.64 36.4783 47.322 37.1449C47.1485 37.4928 46.9172 37.8406 46.5703 38.1884C46.2523 38.5362 45.8764 38.8551 45.4428 39.1739C45.0091 39.4638 44.5177 39.7536 43.9973 39.9855C43.4769 40.2174 42.9276 40.3913 42.3783 40.5362C42.0892 40.5072 41.7712 40.4783 41.4531 40.4493C41.829 39.8986 42.1759 39.3768 42.4939 38.913C42.8698 38.3913 43.2167 37.8986 43.5347 37.4928C43.8527 37.058 44.1707 36.6812 44.4598 36.3333C44.7489 35.9855 45.038 35.6667 45.3271 35.3478L45.5006 35.1739L44.1707 34.8841L44.1129 34.942C42.9565 36.2174 41.3664 38.3913 39.3716 41.4058C38.6777 42.4783 37.955 43.4928 37.2322 44.3913C36.5094 45.3188 35.8156 46.1304 35.1217 46.8551C34.4279 47.5797 33.7629 48.1884 33.098 48.6812C32.462 49.1739 31.8548 49.5217 31.3055 49.7536C31.1032 49.7246 30.9297 49.7246 30.7273 49.6957C30.3515 49.6667 29.9178 49.6667 29.4842 49.6957C29.2818 49.6957 29.0794 49.7246 28.8481 49.7536H28.7903L28.0676 50.7391L28.2699 50.7971C29.1373 51.058 30.2359 51 31.4501 50.5652C31.9416 50.6522 32.5487 50.7681 33.2425 50.8551C33.9653 50.942 34.8904 51 35.9601 51C37.0587 51 38.1284 50.8261 39.1403 50.5362C40.1522 50.2174 41.0773 49.8116 41.9157 49.2899C42.7541 48.7681 43.4769 48.1884 44.1129 47.5507C44.7489 46.913 45.2115 46.2464 45.5295 45.5797C45.7608 45.087 45.9343 44.5942 45.9921 44.1015C46.0499 43.6087 45.9921 43.1449 45.8475 42.7101C45.6741 42.2754 45.385 41.8986 44.9802 41.5797C44.6911 41.3188 44.3153 41.1159 43.8527 40.942C44.3442 40.7971 44.8068 40.6232 45.2115 40.4203C45.7608 40.1594 46.2523 39.8406 46.7149 39.5217C47.1485 39.1739 47.5533 38.7971 47.8713 38.4203C48.1893 38.0145 48.4495 37.6087 48.6519 37.2029C49.0277 36.4203 49.1433 35.7536 49.0566 35.1739C48.941 34.5942 48.6519 34.1014 48.1604 33.7246C47.6978 33.3478 47.0618 33.058 46.2812 32.8841C45.5006 32.7101 44.6333 32.6232 43.6792 32.6232C42.2048 32.6232 40.8171 32.8261 39.545 33.2319C39.1114 33.3768 38.7066 33.5217 38.3308 33.6667C38.9379 32.7391 39.5161 31.8406 40.0943 31C40.9617 29.7246 41.829 28.5072 42.6385 27.4348C43.448 26.3623 44.2575 25.4348 44.9802 24.6522C45.7319 23.8696 46.4257 23.2609 47.0618 22.8261C47.6978 22.4203 48.2471 22.1884 48.7386 22.1884C48.9988 22.1884 49.2012 22.2754 49.3168 22.4783C49.4324 22.6812 49.4035 22.971 49.2301 23.3768L49.0855 23.6667C49.0277 23.7536 48.9699 23.8696 48.8831 23.9855L48.7097 24.2174L50.2709 24.1594L50.2998 24.1014C50.3576 24.0145 50.3865 23.9565 50.4443 23.8696L50.531 23.6667C51.0514 22.942 51.1093 22.3623 50.8491 21.9565ZM19.7124 32.3913C20.2039 32.1014 20.7243 31.7826 21.2736 31.3768C21.9385 30.8551 22.6613 30.2464 23.3551 29.5217C24.0779 28.7971 24.8007 27.9565 25.5523 27C26.2751 26.0725 27.0268 25 27.7785 23.8116C28.3856 23.7826 28.9349 23.7246 29.3974 23.6667C29.9757 23.8116 30.4093 24.0145 30.7562 24.3043C31.0743 24.5652 31.3055 24.8841 31.4212 25.2609C31.5368 25.6377 31.5657 26.0435 31.5079 26.4783C31.4501 26.913 31.3055 27.3768 31.0743 27.8406C30.7852 28.4493 30.3804 29.029 29.86 29.6087C29.6287 29.8696 29.3974 30.1014 29.1373 30.3333C29.0216 30.2754 28.906 30.2174 28.7614 30.1594C28.3567 30.0145 27.8941 29.9275 27.3448 29.9275C26.4775 29.9275 25.5813 30.0725 24.7429 30.3913C23.9044 30.7101 23.0949 31.1159 22.3433 31.6087C21.8807 31.9275 21.476 32.2464 21.0712 32.5942C21.0423 32.5942 21.0134 32.5942 21.0134 32.5942C20.5508 32.5072 20.1172 32.4493 19.7124 32.3913ZM28.4434 30.8551C28.2988 30.942 28.1832 31.058 28.0386 31.1449C27.3448 31.6087 26.622 31.9855 25.8125 32.2464C25.032 32.5362 24.1936 32.6522 23.3551 32.6522C23.0082 32.6522 22.6902 32.6522 22.3722 32.6232C22.6324 32.3913 22.8926 32.1884 23.1528 31.9855C23.731 31.5797 24.3959 31.2319 25.0898 31C25.7836 30.7681 26.5353 30.6232 27.287 30.6232C27.6917 30.6232 28.0387 30.6812 28.2699 30.7681C28.3278 30.7971 28.3567 30.7971 28.3856 30.8261C28.4145 30.8551 28.4434 30.8551 28.4434 30.8551ZM34.6013 30.1304C34.1966 30.1304 33.7629 30.1884 33.3293 30.2464C32.8667 30.3043 32.4331 30.4203 32.0283 30.5362L31.9127 30.5652L32.0283 31.5507L32.2018 31.4928C32.5487 31.3768 32.8667 31.2899 33.1558 31.2029C33.3871 31.1449 33.6184 31.1159 33.9075 31.087C33.0691 32.2174 32.2307 33.2899 31.3923 34.2174C30.496 35.2319 29.5998 36.1014 28.7036 36.8261C27.8074 37.5507 26.8533 38.1014 25.9282 38.4783C25.003 38.8551 24.0201 39.029 23.0371 39.029C22.3144 39.029 21.7362 38.913 21.2736 38.7101C20.811 38.5072 20.493 38.2464 20.2906 37.8986C20.0883 37.5797 20.0015 37.1739 20.0304 36.7101C20.0593 36.2464 20.2039 35.7246 20.493 35.1449C20.7821 34.5652 21.1579 34.0145 21.6205 33.4638C21.6494 33.4348 21.6494 33.4348 21.6783 33.4058C22.0542 33.4348 22.4878 33.4348 22.9215 33.4348C24.0201 33.4348 25.0898 33.2609 26.1016 32.971C27.1135 32.6522 28.0387 32.2464 28.8771 31.7246C29.7155 31.2029 30.4382 30.6232 31.0743 29.9855C31.7103 29.3478 32.1729 28.6812 32.4909 28.0145C32.7222 27.5217 32.8956 27.029 32.9534 26.5362C33.0113 26.0725 32.9824 25.6377 32.8378 25.2319C33.1847 25.1449 33.5317 25.058 33.9075 24.971C34.5146 24.8551 35.1506 24.7391 35.7867 24.6232C36.4227 24.5072 37.0876 24.3913 37.7237 24.3043C37.8971 24.2754 38.0706 24.2464 38.2441 24.1884L39.227 24.0145L39.1981 24.0435C38.8223 24.5072 38.4464 24.971 38.1284 25.3768C37.6948 25.9275 37.29 26.4493 36.9142 26.971C36.5383 27.4928 36.1336 28.0145 35.7867 28.5362C35.3819 29.058 35.0061 29.5797 34.6013 30.1304ZM44.6044 42.8551C44.72 43.2319 44.7489 43.6377 44.6911 44.0725C44.6333 44.5072 44.4887 44.971 44.2575 45.4348C43.9684 46.0435 43.5636 46.6232 43.0432 47.2029C42.5228 47.7826 41.9157 48.3044 41.2219 48.7681C40.5569 49.2319 39.8052 49.6087 38.9957 49.8696C38.2152 50.1594 37.3768 50.2754 36.5383 50.2754C35.6132 50.2754 34.8326 50.2464 34.1966 50.1594C33.734 50.1015 33.3004 50.0435 32.8956 49.9855C33.3871 49.6957 33.9075 49.3768 34.4568 48.971C35.1217 48.4493 35.8445 47.8406 36.5383 47.1159C37.2611 46.3913 37.9839 45.5507 38.7355 44.5942C39.4583 43.6667 40.21 42.5942 40.9617 41.4058C41.5688 41.3768 42.1181 41.3188 42.5806 41.2609C43.1589 41.4058 43.5925 41.6087 43.9394 41.8986C44.2575 42.1884 44.4887 42.5072 44.6044 42.8551Z" fill="#BAA37F"/>
<defs>
<clipPath id="clip0_207_7188">
<rect width="66" height="108" fill="white"/>
</clipPath>
</defs>
</svg>
